<svg width="560" height="160" viewBox="0 0 560 160" fill="none" xmlns="http://www.w3.org/2000/svg" role="img" aria-labelledby="title desc">
  <title id="title">AskDoc logo variant 5</title>
  <desc id="desc">AskDoc minimal wordmark with a question tab folded into the D.</desc>
  <rect width="560" height="160" rx="28" fill="#FBF7EE"/>
  <path d="M68.24 109H53.72L78.2 49.8H92.24L116.72 109H101.96L97.04 96.6H73.16L68.24 109ZM77.6 85.32H92.6L85.16 66.12L77.6 85.32ZM146.351 110.2C140.231 110.2 135.271 108.76 131.471 105.88C127.671 103 125.711 99.08 125.591 94.12H138.431C138.551 96.093 139.311 97.653 140.711 98.8C142.111 99.893 144.031 100.44 146.471 100.44C148.671 100.44 150.391 100.013 151.631 99.16C152.924 98.253 153.571 97.04 153.571 95.52C153.571 94.32 153.111 93.36 152.191 92.64C151.271 91.92 149.711 91.333 147.511 90.88L139.711 89.28C131.311 87.547 127.111 83.253 127.111 76.4C127.111 72.12 128.751 68.653 132.031 66C135.311 63.347 139.631 62.02 144.991 62.02C150.751 62.02 155.364 63.413 158.831 66.2C162.298 68.933 164.138 72.68 164.351 77.44H151.871C151.658 75.627 150.964 74.227 149.791 73.24C148.618 72.253 147.018 71.76 144.991 71.76C143.018 71.76 141.471 72.173 140.351 73C139.231 73.773 138.671 74.853 138.671 76.24C138.671 78.493 140.618 80.04 144.511 80.88L152.551 82.56C156.978 83.467 160.218 84.92 162.271 86.92C164.324 88.867 165.351 91.613 165.351 95.16C165.351 99.76 163.618 103.413 160.151 106.12C156.684 108.84 152.084 110.2 146.351 110.2ZM190.709 109H177.389V44.76H190.709V80.8L205.829 63.24H221.429L203.629 83.28L222.309 109H206.949L194.829 91.8L190.709 96.36V109ZM254.676 49.8C263.956 49.8 271.396 52.52 276.996 57.96C282.649 63.4 285.476 70.6 285.476 79.56C285.476 88.52 282.649 95.68 276.996 101.04C271.396 106.347 263.956 109 254.676 109H231.476V49.8H254.676ZM245.276 97H254.036C259.396 97 263.649 95.44 266.796 92.32C269.996 89.147 271.596 84.893 271.596 79.56C271.596 74.173 269.996 69.893 266.796 66.72C263.649 63.493 259.396 61.88 254.036 61.88H245.276V97Z" fill="#142125"/>
  <path d="M320.72 110.2C313.587 110.2 307.8 107.947 303.36 103.44C298.92 98.88 296.7 93.067 296.7 86C296.7 78.88 298.92 73.067 303.36 68.56C307.8 64.013 313.587 61.74 320.72 61.74C327.853 61.74 333.64 64.013 338.08 68.56C342.52 73.067 344.74 78.88 344.74 86C344.74 93.067 342.52 98.88 338.08 103.44C333.64 107.947 327.853 110.2 320.72 110.2ZM320.72 98.92C323.96 98.92 326.547 97.747 328.48 95.4C330.413 93 331.38 89.867 331.38 86C331.38 82.08 330.413 78.947 328.48 76.6C326.547 74.2 323.96 73 320.72 73C317.48 73 314.893 74.2 312.96 76.6C311.027 78.947 310.06 82.08 310.06 86C310.06 89.867 311.027 93 312.96 95.4C314.893 97.747 317.48 98.92 320.72 98.92ZM377.874 110.2C370.954 110.2 365.327 107.973 360.994 103.52C356.661 99.067 354.494 93.227 354.494 86C354.494 78.773 356.661 72.933 360.994 68.48C365.327 63.987 370.954 61.74 377.874 61.74C383.687 61.74 388.527 63.227 392.394 66.2C396.261 69.173 398.581 73.227 399.354 78.36H386.594C386.114 76.813 385.141 75.56 383.674 74.6C382.207 73.587 380.394 73.08 378.234 73.08C375.047 73.08 372.514 74.253 370.634 76.6C368.754 78.947 367.814 82.08 367.814 86C367.814 89.92 368.754 93.053 370.634 95.4C372.514 97.747 375.047 98.92 378.234 98.92C382.927 98.92 385.861 96.92 387.034 92.92H399.794C398.967 98.28 396.621 102.507 392.754 105.6C388.941 108.667 383.981 110.2 377.874 110.2Z" fill="#1F9B8F"/>
  <path d="M429 51H489C499.493 51 508 59.507 508 70V90C508 100.493 499.493 109 489 109H469.25L452 126V109H429C418.507 109 410 100.493 410 90V70C410 59.507 418.507 51 429 51Z" fill="#142125"/>
  <path d="M459.375 88.1C459.375 84.637 461.353 82.34 464.143 80.701C466.345 79.417 467.715 78.05 467.715 75.853C467.715 73.38 465.813 71.743 462.72 71.743C459.551 71.743 457.498 73.477 457.27 76.44H447.51C447.815 68.938 453.645 64 462.796 64C471.871 64 477.853 68.588 477.853 75.341C477.853 79.984 475.346 82.911 471.947 84.894C469.137 86.551 468.224 87.808 468.224 90.458V91.8H459.375V88.1ZM458.843 103V94.778H468.604V103H458.843Z" fill="#F5A623"/>
</svg>
