<svg width="560" height="160" viewBox="0 0 560 160" fill="none" xmlns="http://www.w3.org/2000/svg" role="img" aria-labelledby="title desc">
  <title id="title">AskDoc logo variant 3</title>
  <desc id="desc">AskDoc wordmark with stacked knowledge cards resolving into an answer.</desc>
  <defs>
    <filter id="cardShadow" x="23" y="24" width="130" height="122" filterUnits="userSpaceOnUse" color-interpolation-filters="sRGB">
      <feFlood flood-opacity="0" result="BackgroundImageFix"/>
      <feColorMatrix in="SourceAlpha" type="matrix" values="0 0 0 0 0 0 0 0 0 0 0 0 0 0 0 0 0 0 127 0" result="hardAlpha"/>
      <feOffset dy="7"/>
      <feGaussianBlur stdDeviation="9"/>
      <feComposite in2="hardAlpha" operator="out"/>
      <feColorMatrix type="matrix" values="0 0 0 0 0.06 0 0 0 0 0.08 0 0 0 0 0.10 0 0 0 0.14 0"/>
      <feBlend mode="normal" in2="BackgroundImageFix" result="effect1_dropShadow_3"/>
      <feBlend mode="normal" in="SourceGraphic" in2="effect1_dropShadow_3" result="shape"/>
    </filter>
  </defs>
  <rect width="560" height="160" rx="28" fill="#F4F7F7"/>
  <g filter="url(#cardShadow)">
    <rect x="43" y="36" width="88" height="74" rx="15" fill="#BDEBE6"/>
    <rect x="35" y="48" width="88" height="74" rx="15" fill="#FFFFFF"/>
    <rect x="49" y="64" width="50" height="8" rx="4" fill="#173D40" fill-opacity="0.22"/>
    <rect x="49" y="83" width="38" height="8" rx="4" fill="#173D40" fill-opacity="0.16"/>
    <path d="M103 97C103 88.716 109.716 82 118 82H126C134.284 82 141 88.716 141 97C141 105.284 134.284 112 126 112H121.5L111 124V111.19C106.38 108.743 103 103.417 103 97Z" fill="#1F9B8F"/>
    <path d="M117 98L121.5 102.5L129 93.5" stroke="white" stroke-width="5" stroke-linecap="round" stroke-linejoin="round"/>
    <circle cx="45" cy="49" r="9" fill="#F5A623"/>
  </g>
  <path d="M188.4 109H173.88L198.36 49.8H212.4L236.88 109H222.12L217.2 96.6H193.32L188.4 109ZM197.76 85.32H212.76L205.32 66.12L197.76 85.32ZM266.511 110.2C260.391 110.2 255.431 108.76 251.631 105.88C247.831 103 245.871 99.08 245.751 94.12H258.591C258.711 96.093 259.471 97.653 260.871 98.8C262.271 99.893 264.191 100.44 266.631 100.44C268.831 100.44 270.551 100.013 271.791 99.16C273.084 98.253 273.731 97.04 273.731 95.52C273.731 94.32 273.271 93.36 272.351 92.64C271.431 91.92 269.871 91.333 267.671 90.88L259.871 89.28C251.471 87.547 247.271 83.253 247.271 76.4C247.271 72.12 248.911 68.653 252.191 66C255.471 63.347 259.791 62.02 265.151 62.02C270.911 62.02 275.524 63.413 278.991 66.2C282.458 68.933 284.298 72.68 284.511 77.44H272.031C271.818 75.627 271.124 74.227 269.951 73.24C268.778 72.253 267.178 71.76 265.151 71.76C263.178 71.76 261.631 72.173 260.511 73C259.391 73.773 258.831 74.853 258.831 76.24C258.831 78.493 260.778 80.04 264.671 80.88L272.711 82.56C277.138 83.467 280.378 84.92 282.431 86.92C284.484 88.867 285.511 91.613 285.511 95.16C285.511 99.76 283.778 103.413 280.311 106.12C276.844 108.84 272.244 110.2 266.511 110.2ZM310.869 109H297.549V44.76H310.869V80.8L325.989 63.24H341.589L323.789 83.28L342.469 109H327.109L314.989 91.8L310.869 96.36V109ZM374.836 49.8C384.116 49.8 391.556 52.52 397.156 57.96C402.809 63.4 405.636 70.6 405.636 79.56C405.636 88.52 402.809 95.68 397.156 101.04C391.556 106.347 384.116 109 374.836 109H351.636V49.8H374.836ZM365.436 97H374.196C379.556 97 383.809 95.44 386.956 92.32C390.156 89.147 391.756 84.893 391.756 79.56C391.756 74.173 390.156 69.893 386.956 66.72C383.809 63.493 379.556 61.88 374.196 61.88H365.436V97ZM438.88 110.2C431.747 110.2 425.96 107.947 421.52 103.44C417.08 98.88 414.86 93.067 414.86 86C414.86 78.88 417.08 73.067 421.52 68.56C425.96 64.013 431.747 61.74 438.88 61.74C446.013 61.74 451.8 64.013 456.24 68.56C460.68 73.067 462.9 78.88 462.9 86C462.9 93.067 460.68 98.88 456.24 103.44C451.8 107.947 446.013 110.2 438.88 110.2ZM438.88 98.92C442.12 98.92 444.707 97.747 446.64 95.4C448.573 93 449.54 89.867 449.54 86C449.54 82.08 448.573 78.947 446.64 76.6C444.707 74.2 442.12 73 438.88 73C435.64 73 433.053 74.2 431.12 76.6C429.187 78.947 428.22 82.08 428.22 86C428.22 89.867 429.187 93 431.12 95.4C433.053 97.747 435.64 98.92 438.88 98.92ZM496.034 110.2C489.114 110.2 483.487 107.973 479.154 103.52C474.821 99.067 472.654 93.227 472.654 86C472.654 78.773 474.821 72.933 479.154 68.48C483.487 63.987 489.114 61.74 496.034 61.74C501.847 61.74 506.687 63.227 510.554 66.2C514.421 69.173 516.741 73.227 517.514 78.36H504.754C504.274 76.813 503.301 75.56 501.834 74.6C500.367 73.587 498.554 73.08 496.394 73.08C493.207 73.08 490.674 74.253 488.794 76.6C486.914 78.947 485.974 82.08 485.974 86C485.974 89.92 486.914 93.053 488.794 95.4C490.674 97.747 493.207 98.92 496.394 98.92C501.087 98.92 504.021 96.92 505.194 92.92H517.954C517.127 98.28 514.781 102.507 510.914 105.6C507.101 108.667 502.141 110.2 496.034 110.2Z" fill="#162129"/>
</svg>
