<svg width="560" height="160" viewBox="0 0 560 160" fill="none" xmlns="http://www.w3.org/2000/svg" role="img" aria-labelledby="title desc">
  <title id="title">AskDoc logo variant 2</title>
  <desc id="desc">AskDoc wordmark with an AD monogram built from a document and answer check.</desc>
  <defs>
    <linearGradient id="badgeGradient" x1="32" y1="32" x2="136" y2="136" gradientUnits="userSpaceOnUse">
      <stop stop-color="#173D40"/>
      <stop offset="1" stop-color="#0F6F68"/>
    </linearGradient>
    <linearGradient id="accentGradient" x1="63" y1="50" x2="116" y2="113" gradientUnits="userSpaceOnUse">
      <stop stop-color="#FFD35B"/>
      <stop offset="1" stop-color="#F59E0B"/>
    </linearGradient>
  </defs>
  <rect width="560" height="160" rx="28" fill="#FFFFFF"/>
  <rect x="34" y="26" width="116" height="116" rx="32" fill="url(#badgeGradient)"/>
  <path d="M71 109L88.846 55H103.462L121 109H107.923L104.462 97.615H87.231L83.769 109H71ZM90.462 86.846H101.231L95.923 68.692L90.462 86.846Z" fill="white"/>
  <path d="M92 111V55H109.231C117.026 55 123.282 57.538 128 62.615C132.718 67.692 135.077 74.41 135.077 82.769C135.077 91.128 132.718 97.923 128 103.154C123.333 108.385 117.077 111 109.231 111H92Z" fill="white" fill-opacity="0.22"/>
  <path d="M107 69H112.923C116.487 69 119.308 70.282 121.385 72.846C123.513 75.359 124.577 78.667 124.577 82.769C124.577 86.923 123.513 90.282 121.385 92.846C119.308 95.359 116.487 96.615 112.923 96.615H107V69Z" fill="#173D40"/>
  <path d="M70 72L82 84L109 55" stroke="url(#accentGradient)" stroke-width="8" stroke-linecap="round" stroke-linejoin="round"/>
  <path d="M190.24 109H175.72L200.2 49.8H214.24L238.72 109H223.96L219.04 96.6H195.16L190.24 109ZM199.6 85.32H214.6L207.16 66.12L199.6 85.32ZM268.351 110.2C262.231 110.2 257.271 108.76 253.471 105.88C249.671 103 247.711 99.08 247.591 94.12H260.431C260.551 96.093 261.311 97.653 262.711 98.8C264.111 99.893 266.031 100.44 268.471 100.44C270.671 100.44 272.391 100.013 273.631 99.16C274.924 98.253 275.571 97.04 275.571 95.52C275.571 94.32 275.111 93.36 274.191 92.64C273.271 91.92 271.711 91.333 269.511 90.88L261.711 89.28C253.311 87.547 249.111 83.253 249.111 76.4C249.111 72.12 250.751 68.653 254.031 66C257.311 63.347 261.631 62.02 266.991 62.02C272.751 62.02 277.364 63.413 280.831 66.2C284.298 68.933 286.138 72.68 286.351 77.44H273.871C273.658 75.627 272.964 74.227 271.791 73.24C270.618 72.253 269.018 71.76 266.991 71.76C265.018 71.76 263.471 72.173 262.351 73C261.231 73.773 260.671 74.853 260.671 76.24C260.671 78.493 262.618 80.04 266.511 80.88L274.551 82.56C278.978 83.467 282.218 84.92 284.271 86.92C286.324 88.867 287.351 91.613 287.351 95.16C287.351 99.76 285.618 103.413 282.151 106.12C278.684 108.84 274.084 110.2 268.351 110.2ZM312.709 109H299.389V44.76H312.709V80.8L327.829 63.24H343.429L325.629 83.28L344.309 109H328.949L316.829 91.8L312.709 96.36V109ZM376.676 49.8C385.956 49.8 393.396 52.52 398.996 57.96C404.649 63.4 407.476 70.6 407.476 79.56C407.476 88.52 404.649 95.68 398.996 101.04C393.396 106.347 385.956 109 376.676 109H353.476V49.8H376.676ZM367.276 97H376.036C381.396 97 385.649 95.44 388.796 92.32C391.996 89.147 393.596 84.893 393.596 79.56C393.596 74.173 391.996 69.893 388.796 66.72C385.649 63.493 381.396 61.88 376.036 61.88H367.276V97ZM440.72 110.2C433.587 110.2 427.8 107.947 423.36 103.44C418.92 98.88 416.7 93.067 416.7 86C416.7 78.88 418.92 73.067 423.36 68.56C427.8 64.013 433.587 61.74 440.72 61.74C447.853 61.74 453.64 64.013 458.08 68.56C462.52 73.067 464.74 78.88 464.74 86C464.74 93.067 462.52 98.88 458.08 103.44C453.64 107.947 447.853 110.2 440.72 110.2ZM440.72 98.92C443.96 98.92 446.547 97.747 448.48 95.4C450.413 93 451.38 89.867 451.38 86C451.38 82.08 450.413 78.947 448.48 76.6C446.547 74.2 443.96 73 440.72 73C437.48 73 434.893 74.2 432.96 76.6C431.027 78.947 430.06 82.08 430.06 86C430.06 89.867 431.027 93 432.96 95.4C434.893 97.747 437.48 98.92 440.72 98.92ZM497.874 110.2C490.954 110.2 485.327 107.973 480.994 103.52C476.661 99.067 474.494 93.227 474.494 86C474.494 78.773 476.661 72.933 480.994 68.48C485.327 63.987 490.954 61.74 497.874 61.74C503.687 61.74 508.527 63.227 512.394 66.2C516.261 69.173 518.581 73.227 519.354 78.36H506.594C506.114 76.813 505.141 75.56 503.674 74.6C502.207 73.587 500.394 73.08 498.234 73.08C495.047 73.08 492.514 74.253 490.634 76.6C488.754 78.947 487.814 82.08 487.814 86C487.814 89.92 488.754 93.053 490.634 95.4C492.514 97.747 495.047 98.92 498.234 98.92C502.927 98.92 505.861 96.92 507.034 92.92H519.794C518.967 98.28 516.621 102.507 512.754 105.6C508.941 108.667 503.981 110.2 497.874 110.2Z" fill="#111827"/>
</svg>
