<svg width="560" height="160" viewBox="0 0 560 160" fill="none" xmlns="http://www.w3.org/2000/svg" role="img" aria-labelledby="title desc">
  <title id="title">AskDoc logo variant 1</title>
  <desc id="desc">AskDoc wordmark with a folded document being asked a question in chat.</desc>
  <defs>
    <linearGradient id="docGradient" x1="38" y1="31" x2="130" y2="126" gradientUnits="userSpaceOnUse">
      <stop stop-color="#1F9B8F"/>
      <stop offset="1" stop-color="#146E69"/>
    </linearGradient>
    <filter id="softShadow" x="18" y="18" width="132" height="132" filterUnits="userSpaceOnUse" color-interpolation-filters="sRGB">
      <feFlood flood-opacity="0" result="BackgroundImageFix"/>
      <feColorMatrix in="SourceAlpha" type="matrix" values="0 0 0 0 0 0 0 0 0 0 0 0 0 0 0 0 0 0 127 0" result="hardAlpha"/>
      <feOffset dy="8"/>
      <feGaussianBlur stdDeviation="10"/>
      <feComposite in2="hardAlpha" operator="out"/>
      <feColorMatrix type="matrix" values="0 0 0 0 0.08 0 0 0 0 0.11 0 0 0 0 0.14 0 0 0 0.16 0"/>
      <feBlend mode="normal" in2="BackgroundImageFix" result="effect1_dropShadow_1"/>
      <feBlend mode="normal" in="SourceGraphic" in2="effect1_dropShadow_1" result="shape"/>
    </filter>
  </defs>
  <rect width="560" height="160" rx="28" fill="#F8FAFC"/>
  <g filter="url(#softShadow)">
    <path d="M48 31H103L128 56V125C128 130.523 123.523 135 118 135H48C42.477 135 38 130.523 38 125V41C38 35.477 42.477 31 48 31Z" fill="url(#docGradient)"/>
    <path d="M102 31V52C102 55.314 104.686 58 108 58H128L102 31Z" fill="#BDEBE6"/>
    <path d="M62 66H94" stroke="white" stroke-width="8" stroke-linecap="round" opacity="0.94"/>
    <path d="M62 88H82" stroke="white" stroke-width="8" stroke-linecap="round" opacity="0.72"/>
    <path d="M62 112H90" stroke="white" stroke-width="8" stroke-linecap="round" opacity="0.48"/>
    <path d="M88 80C88 69.507 96.507 61 107 61H129C139.493 61 148 69.507 148 80V95C148 105.493 139.493 114 129 114H122L108 129V114H107C96.507 114 88 105.493 88 95V80Z" fill="#F5A623"/>
    <path d="M116.25 94.5V91.95C116.25 88.777 118.362 86.859 121.334 85.148C123.659 83.81 125.126 82.572 125.126 80.605C125.126 78.417 123.438 77.047 120.741 77.047C117.92 77.047 116.102 78.589 115.876 81.286H107.827C108.227 74.652 113.362 70.199 121.016 70.199C128.72 70.199 133.977 74.426 133.977 80.313C133.977 84.442 131.845 87.017 128.401 89.006C125.705 90.569 124.777 91.736 124.777 94.034V94.5H116.25Z" fill="#211A10"/>
    <circle cx="120.515" cy="103.52" r="4.48" fill="#211A10"/>
    <path d="M67 101H82" stroke="#BDEBE6" stroke-width="6" stroke-linecap="round"/>
    <circle cx="94" cy="101" r="3" fill="#BDEBE6"/>
  </g>
  <path d="M188.904 109H174.384L198.864 49.8H212.904L237.384 109H222.624L217.704 96.6H193.824L188.904 109ZM198.264 85.32H213.264L205.824 66.12L198.264 85.32ZM267.015 110.2C260.895 110.2 255.935 108.76 252.135 105.88C248.335 103 246.375 99.08 246.255 94.12H259.095C259.215 96.093 259.975 97.653 261.375 98.8C262.775 99.893 264.695 100.44 267.135 100.44C269.335 100.44 271.055 100.013 272.295 99.16C273.588 98.253 274.235 97.04 274.235 95.52C274.235 94.32 273.775 93.36 272.855 92.64C271.935 91.92 270.375 91.333 268.175 90.88L260.375 89.28C251.975 87.547 247.775 83.253 247.775 76.4C247.775 72.12 249.415 68.653 252.695 66C255.975 63.347 260.295 62.02 265.655 62.02C271.415 62.02 276.028 63.413 279.495 66.2C282.962 68.933 284.802 72.68 285.015 77.44H272.535C272.322 75.627 271.628 74.227 270.455 73.24C269.282 72.253 267.682 71.76 265.655 71.76C263.682 71.76 262.135 72.173 261.015 73C259.895 73.773 259.335 74.853 259.335 76.24C259.335 78.493 261.282 80.04 265.175 80.88L273.215 82.56C277.642 83.467 280.882 84.92 282.935 86.92C284.988 88.867 286.015 91.613 286.015 95.16C286.015 99.76 284.282 103.413 280.815 106.12C277.348 108.84 272.748 110.2 267.015 110.2ZM311.373 109H298.053V44.76H311.373V80.8L326.493 63.24H342.093L324.293 83.28L342.973 109H327.613L315.493 91.8L311.373 96.36V109ZM375.34 49.8C384.62 49.8 392.06 52.52 397.66 57.96C403.313 63.4 406.14 70.6 406.14 79.56C406.14 88.52 403.313 95.68 397.66 101.04C392.06 106.347 384.62 109 375.34 109H352.14V49.8H375.34ZM365.94 97H374.7C380.06 97 384.313 95.44 387.46 92.32C390.66 89.147 392.26 84.893 392.26 79.56C392.26 74.173 390.66 69.893 387.46 66.72C384.313 63.493 380.06 61.88 374.7 61.88H365.94V97ZM439.384 110.2C432.251 110.2 426.464 107.947 422.024 103.44C417.584 98.88 415.364 93.067 415.364 86C415.364 78.88 417.584 73.067 422.024 68.56C426.464 64.013 432.251 61.74 439.384 61.74C446.517 61.74 452.304 64.013 456.744 68.56C461.184 73.067 463.404 78.88 463.404 86C463.404 93.067 461.184 98.88 456.744 103.44C452.304 107.947 446.517 110.2 439.384 110.2ZM439.384 98.92C442.624 98.92 445.211 97.747 447.144 95.4C449.077 93 450.044 89.867 450.044 86C450.044 82.08 449.077 78.947 447.144 76.6C445.211 74.2 442.624 73 439.384 73C436.144 73 433.557 74.2 431.624 76.6C429.691 78.947 428.724 82.08 428.724 86C428.724 89.867 429.691 93 431.624 95.4C433.557 97.747 436.144 98.92 439.384 98.92ZM496.538 110.2C489.618 110.2 483.991 107.973 479.658 103.52C475.325 99.067 473.158 93.227 473.158 86C473.158 78.773 475.325 72.933 479.658 68.48C483.991 63.987 489.618 61.74 496.538 61.74C502.351 61.74 507.191 63.227 511.058 66.2C514.925 69.173 517.245 73.227 518.018 78.36H505.258C504.778 76.813 503.805 75.56 502.338 74.6C500.871 73.587 499.058 73.08 496.898 73.08C493.711 73.08 491.178 74.253 489.298 76.6C487.418 78.947 486.478 82.08 486.478 86C486.478 89.92 487.418 93.053 489.298 95.4C491.178 97.747 493.711 98.92 496.898 98.92C501.591 98.92 504.525 96.92 505.698 92.92H518.458C517.631 98.28 515.285 102.507 511.418 105.6C507.605 108.667 502.645 110.2 496.538 110.2Z" fill="#17202A"/>
</svg>
